/* XPM */
static char * valkyrie2_xpm[] = {
"32 32 486 2",
"  	c None",
". 	c #5E3712",
"+ 	c #754C1C",
"@ 	c #895F26",
"# 	c #9A7130",
"$ 	c #A8803A",
"% 	c #B08B41",
"& 	c #B79144",
"* 	c #BA9546",
"= 	c #BC9545",
"- 	c #BC9443",
"; 	c #BC9241",
"> 	c #BA913F",
", 	c #B98F3D",
"' 	c #B98E3D",
") 	c #BA8F3D",
"! 	c #BC9445",
"~ 	c #BA9445",
"{ 	c #B78F43",
"] 	c #B2883E",
"^ 	c #A87F38",
"/ 	c #9D712F",
"( 	c #8E6126",
"_ 	c #7E501D",
": 	c #7E5420",
"< 	c #B4894B",
"[ 	c #C09856",
"} 	c #CAA65E",
"| 	c #CFAF66",
"1 	c #D3B469",
"2 	c #D5B569",
"3 	c #D7B567",
"4 	c #D5B463",
"5 	c #D5B05F",
"6 	c #D3AF5C",
"7 	c #D1AB58",
"8 	c #D1AA57",
"9 	c #D3AB58",
"0 	c #D3AD5C",
"a 	c #D5B262",
"b 	c #D5B466",
"c 	c #D5B467",
"d 	c #D3B267",
"e 	c #CFAB62",
"f 	c #C8A259",
"g 	c #C09550",
"h 	c #976C2D",
"i 	c #956C2F",
"j 	c #C39D58",
"k 	c #CEAB63",
"l 	c #D3B46C",
"m 	c #D9B970",
"n 	c #DABC70",
"o 	c #D9BA6C",
"p 	c #D9B767",
"q 	c #D7B462",
"r 	c #D5B05D",
"s 	c #D5AD59",
"t 	c #D3AD58",
"u 	c #D9B96C",
"v 	c #D9BA6F",
"w 	c #D7B76D",
"x 	c #D3B068",
"y 	c #CCA85E",
"z 	c #AA823C",
"A 	c #CF9B4C",
"B 	c #7F521E",
"C 	c #865923",
"D 	c #8B6126",
"E 	c #916629",
"F 	c #92692A",
"G 	c #956C2B",
"H 	c #976D2A",
"I 	c #976C29",
"J 	c #956926",
"K 	c #CCA85F",
"L 	c #D7B76C",
"M 	c #916420",
"N 	c #916621",
"O 	c #916623",
"P 	c #926826",
"Q 	c #946928",
"R 	c #926B2A",
"S 	c #91692B",
"T 	c #8F682C",
"U 	c #8C632A",
"V 	c #855E26",
"W 	c #7B5522",
"X 	c #714B1E",
"Y 	c #664018",
"Z 	c #593613",
"` 	c #D5B469",
" .	c #D1AF64",
"..	c #CAA35B",
"+.	c #A67C37",
"@.	c #B4803B",
"#.	c #916933",
"$.	c #987138",
"%.	c #9E773A",
"&.	c #A27C3D",
"*.	c #A37E3D",
"=.	c #A6803D",
"-.	c #A67F3B",
";.	c #A67E38",
">.	c #9E752C",
",.	c #CCA65C",
"'.	c #CFAB5E",
").	c #D1AD5D",
"!.	c #9B7028",
"~.	c #A07832",
"{.	c #A07B36",
"].	c #A07C38",
"^.	c #A27C3C",
"/.	c #A07C3E",
"(.	c #9D793E",
"_.	c #9A753D",
":.	c #926F39",
"<.	c #8B6736",
"[.	c #7F5C30",
"}.	c #6C461B",
"|.	c #D1AB5C",
"1.	c #CFA85C",
"2.	c #CCA257",
"3.	c #AF823A",
"4.	c #D19A4A",
"5.	c #92682A",
"6.	c #A57F3F",
"7.	c #AA8643",
"8.	c #AD8944",
"9.	c #AF8944",
"0.	c #AF8941",
"a.	c #AD883F",
"b.	c #B9913C",
"c.	c #C1944A",
"d.	c #C79A4C",
"e.	c #C89B4B",
"f.	c #A37B2D",
"g.	c #A68038",
"h.	c #A8833A",
"i.	c #A8863E",
"j.	c #AA8641",
"k.	c #A88543",
"l.	c #A58244",
"m.	c #A07E42",
"n.	c #9A773E",
"o.	c #916D39",
"p.	c #856132",
"q.	c #885F2A",
"r.	c #C89A4A",
"s.	c #C7974A",
"t.	c #C19147",
"u.	c #CA9242",
"v.	c #C39144",
"w.	c #AA8542",
"x.	c #B08B46",
"y.	c #B28F49",
"z.	c #B08E41",
"A.	c #B28E3F",
"B.	c #B08C3C",
"C.	c #AF8938",
"D.	c #AD8635",
"E.	c #E4C86B",
"F.	c #E4CA6B",
"G.	c #E6C86C",
"H.	c #AA8333",
"I.	c #AA8335",
"J.	c #AB8638",
"K.	c #AA853B",
"L.	c #AA853D",
"M.	c #AA8847",
"N.	c #9D7B40",
"O.	c #94703A",
"P.	c #835C26",
"Q.	c #DAB054",
"R.	c #E2C166",
"S.	c #E4C76B",
"T.	c #E4C56B",
"U.	c #E0C064",
"V.	c #DAB55B",
"W.	c #D1A84F",
"X.	c #9E7532",
"Y.	c #B5944C",
"Z.	c #B9974D",
"`.	c #C19D4B",
" +	c #EFDC92",
".+	c #F3E8AB",
"++	c #F5EDB5",
"@+	c #F5EDB9",
"#+	c #F5EBB5",
"$+	c #F3E6AA",
"%+	c #EDD589",
"&+	c #D7A54F",
"*+	c #C8A250",
"=+	c #AB8B47",
"-+	c #A58345",
";+	c #9E7B40",
">+	c #957039",
",+	c #AF803E",
"'+	c #F1E098",
")+	c #F5E9AF",
"!+	c #F5EDB7",
"~+	c #F5EBB0",
"{+	c #F1E4A2",
"]+	c #EDD788",
"^+	c #DCBA63",
"/+	c #A67F38",
"(+	c #B28F47",
"_+	c #B7954D",
":+	c #BA984F",
"<+	c #B99746",
"[+	c #F7F1C5",
"}+	c #FBF7DC",
"|+	c #FBF9E4",
"1+	c #FBF9E0",
"2+	c #F9F7D9",
"3+	c #F7F1C7",
"4+	c #F1E0A0",
"5+	c #DEB45C",
"6+	c #AB863C",
"7+	c #AB8945",
"8+	c #A58243",
"9+	c #8E672B",
"0+	c #F1DE97",
"a+	c #FBF7DE",
"b+	c #F9F5D3",
"c+	c #F5E9B0",
"d+	c #E8CF7C",
"e+	c #CA9D4A",
"f+	c #B08C45",
"g+	c #B7954C",
"h+	c #BA9B4E",
"i+	c #BE9D4E",
"j+	c #BA9A44",
"k+	c #F7EFBA",
"l+	c #FBF9E2",
"m+	c #FDFBEF",
"n+	c #FDFBEB",
"o+	c #F9F3CC",
"p+	c #F5EBB2",
"q+	c #EFD78B",
"r+	c #C79E49",
"s+	c #AB8B42",
"t+	c #A88541",
"u+	c #A27E3E",
"v+	c #AA823A",
"w+	c #B2863E",
"x+	c #F3E6A3",
"y+	c #F9F5CF",
"z+	c #FBF9E8",
"A+	c #FDFBF1",
"B+	c #F1E49D",
"C+	c #E6C15E",
"D+	c #AA8338",
"E+	c #B49247",
"F+	c #BA9A4D",
"G+	c #BA9A45",
"H+	c #F1E69E",
"I+	c #F9F5D1",
"J+	c #F7F3C5",
"K+	c #F1E69B",
"L+	c #EBD378",
"M+	c #E0B555",
"N+	c #AA8334",
"O+	c #A8863D",
"P+	c #A37F3B",
"Q+	c #9E7838",
"R+	c #916728",
"S+	c #EDDC8B",
"T+	c #F7EFBE",
"U+	c #FDFBED",
"V+	c #E8CF77",
"W+	c #C39743",
"X+	c #B28E44",
"Y+	c #B9974B",
"Z+	c #BA9B4D",
"`+	c #BE9E4D",
" @	c #BA9A43",
".@	c #FBF7DA",
"+@	c #AA6923",
"@@	c #BA8238",
"#@	c #C38F3F",
"$@	c #C89A47",
"%@	c #BA913A",
"&@	c #A57F38",
"*@	c #9E7936",
"=@	c #987132",
"-@	c #C89845",
";@	c #C18C3D",
">@	c #B97B35",
",@	c #945419",
"'@	c #F9F3CA",
")@	c #EFDE92",
"!@	c #E4BA55",
"~@	c #AA8537",
"{@	c #B59246",
"]@	c #BA984B",
"^@	c #BC9D4D",
"/@	c #BE9E4C",
"(@	c #F1E092",
"_@	c #F7F1C1",
":@	c #955D1E",
"<@	c #C08B40",
"[@	c #CA9B4C",
"}@	c #D1A857",
"|@	c #A27B2C",
"1@	c #A07933",
"2@	c #9A7330",
"3@	c #8C6221",
"4@	c #CFA555",
"5@	c #C79749",
"6@	c #A26D27",
"7@	c #F1E69A",
"8@	c #F9F3CE",
"9@	c #F3E8A6",
"0@	c #E8C767",
"a@	c #CC9E49",
"b@	c #BE9743",
"c@	c #B79549",
"d@	c #BA9A4C",
"e@	c #BC9A43",
"f@	c #F3E4A0",
"g@	c #F7EDBA",
"h@	c #BC8B3B",
"i@	c #CEA556",
"j@	c #D7B566",
"k@	c #DCBE71",
"l@	c #956B24",
"m@	c #8E6320",
"n@	c #DABC6F",
"o@	c #D3AF61",
"p@	c #CA9E51",
"q@	c #B47E33",
"r@	c #F3E8A5",
"s@	c #F7F1C8",
"t@	c #EBD37E",
"u@	c #A88236",
"v@	c #B49146",
"w@	c #B9984B",
"x@	c #BC9B4D",
"y@	c #B99742",
"z@	c #F3E2A2",
"A@	c #AB7E35",
"B@	c #CFAA5C",
"C@	c #D9BA6D",
"D@	c #DEC77C",
"E@	c #E2CA83",
"F@	c #E2CA82",
"G@	c #DEC378",
"H@	c #B78E41",
"I@	c #EBD57E",
"J@	c #F7EFC1",
"K@	c #F1E29B",
"L@	c #E4BE5B",
"M@	c #C89D46",
"N@	c #BC9543",
"O@	c #B59449",
"P@	c #BC9B4E",
"Q@	c #C7A34E",
"R@	c #EFD78E",
"S@	c #EFDA97",
"T@	c #E8C16C",
"U@	c #A67F30",
"V@	c #DEC77E",
"W@	c #E2CC86",
"X@	c #E2CA85",
"Y@	c #DCC378",
"Z@	c #D5B266",
"`@	c #C89D4B",
" #	c #F3E6A2",
".#	c #E8CE75",
"+#	c #A57F36",
"@#	c #B28F46",
"##	c #BA984E",
"$#	c #BA9A4E",
"%#	c #B59443",
"&#	c #E9C774",
"*#	c #B58C3B",
"=#	c #D3B467",
"-#	c #DAC078",
";#	c #DEC77F",
">#	c #DCC57C",
",#	c #D7BA70",
"'#	c #C7A252",
")#	c #EFDC8F",
"!#	c #F7EDB9",
"~#	c #F7EDBC",
"{#	c #EFDA8E",
"]#	c #E4B755",
"^#	c #C79B47",
"/#	c #A88239",
"(#	c #B29149",
"_#	c #B5954D",
":#	c #B7954E",
"<#	c #B5954C",
"[#	c #AF8B3E",
"}#	c #AB8942",
"|#	c #A37F3A",
"1#	c #976D28",
"2#	c #D3B569",
"3#	c #D7BA71",
"4#	c #D7B96F",
"5#	c #CFB063",
"6#	c #C79E4C",
"7#	c #F7EFC0",
"8#	c #F3E4A2",
"9#	c #E4C163",
"0#	c #C09546",
"a#	c #AB8944",
"b#	c #B08F4A",
"c#	c #B2924C",
"d#	c #B0914B",
"e#	c #AD8C46",
"f#	c #A68541",
"g#	c #A07939",
"h#	c #9E752F",
"i#	c #C8A359",
"j#	c #CCAA5F",
"k#	c #CAA85E",
"l#	c #AF8B3F",
"m#	c #F1E49B",
"n#	c #F5EBB4",
"o#	c #E9D17B",
"p#	c #A07935",
"q#	c #A88845",
"r#	c #AB8947",
"s#	c #A68544",
"t#	c #987338",
"u#	c #B08339",
"v#	c #9E7731",
"w#	c #BE9750",
"x#	c #BC954F",
"y#	c #B98B3E",
"z#	c #F1E29A",
"A#	c #E4BC5B",
"B#	c #CA9B4D",
"C#	c #A07C3F",
"D#	c #A38043",
"E#	c #9E7C40",
"F#	c #98753B",
"G#	c #8C6428",
"H#	c #EFD988",
"I#	c #F1E297",
"J#	c #B2823A",
"K#	c #8B5F24",
"L#	c #F7EFB9",
"M#	c #8F692D",
"N#	c #98743C",
"O#	c #97733A",
"P#	c #8C642A",
"Q#	c #AD7F3B",
"R#	c #714618",
"S#	c #F1DE91",
"T#	c #E4B956",
"U#	c #C09147",
"V#	c #8C6835",
"W#	c #8E6836",
"X#	c #8B6734",
"Y#	c #9A6D31",
"Z#	c #E8CE7B",
"`#	c #F5EDBA",
" $	c #FBFBE9",
".$	c #FBF9E6",
"+$	c #E4C364",
"@$	c #78511F",
"#$	c #7F592E",
"$$	c #774F1E",
"%$	c #DEBC5F",
"&$	c #F7EFBC",
"*$	c #E9D57E",
"=$	c #AB793B",
"-$	c #6F471B",
";$	c #AB7B3C",
">$	c #E8D17B",
",$	c #F9F5D7",
"'$	c #F1E49E",
")$	c #E4C05C",
"!$	c #5E3814",
"~$	c #E2BA57",
"{$	c #EDDC8F",
"]$	c #E6CC74",
"^$	c #DAB95D",
"/$	c #E4CA79",
"($	c #E0B454",
"_$	c #D1AA51",
":$	c #D7A84F",
"<$	c #B57E30",
"                                                                ",
"                                                                ",
"                                                                ",
"          . + @ # $ % & * = - ; > , ' ' ) > ; - ! ~ { ] ^ / ( _ ",
"            : < [ } | 1 2 3 4 5 6 7 8 8 9 0 5 a b c d e f g h   ",
"              i j k l m n o p q r s t t s r q p u v w x y z A   ",
"B C D E F G H I J K x L M N O P Q R S T U V W X Y Z `  ...+.    ",
"@.#.$.%.&.*.=.-.;.>.,.'.).!.~.{.].^./.(._.:.<.[.}.|.1.2.3.4.    ",
"  5.%.6.7.8.9.0.a.b.c.d.e.f.g.h.i.j.k.l.m.n.o.p.q.r.s.t.u.      ",
"  v.^.w.x.y.z.A.B.C.D.E.F.G.H.I.J.K.L.M.l.N.O.P.Q.R.S.E.T.U.V.W.",
"    X.7.y.Y.Z.`. +.+++@+@+@+#+$+%+&+*+=+-+;+>+,+'+)+!+!+~+{+]+^+",
"      /+(+_+:+<+'+[+}+|+|+1+2+3+4+5+6+7+8+(.9+0+[+a+|+|+b+c+d+  ",
"      e+f+g+h+i+j+k+l+m+n+1+o+p+q+r+s+t+u+v+w+x+y+z+A+n+y+B+C+  ",
"        D+E+F+i+G+H+I+z+l+J+K+L+M+N+O+P+Q+R+M+S+T+l+U+l+@+V+    ",
"        W+X+Y+Z+`+ @@+.@I++@@@#@$@%@&@*@=@-@;@>@,@b+l+'@)@!@    ",
"          ~@{@]@^@/@(@_@[+:@<@[@}@|@1@2@3@4@5@6@7@o+8@9@0@      ",
"          a@b@c@d@`+e@f@g@B+h@i@j@k@l@m@n@o@p@q@r@s@@+t@        ",
"            u@v@w@x@^@y@$+z@A@B@C@D@E@F@G@c H@I@!+J@K@L@        ",
"            M@N@O@F+P@Q@R@S@T@U@v V@W@X@Y@Z@`@ #J@c+.#          ",
"              +#@#g+##$#%#&#J.*#=#-#;#>#,#'#)#!#~#{#]#          ",
"              ^#/#(#_#:#<#[#}#|#1#2#3#4#5#6#)+7#8#9#            ",
"                0#a#b#c#d#e#f#g#h#i#j#k#l#m#7#n#o#              ",
"                  p#q#=+r#s#u+t#u#v#w#x#y#@+7#z#A#              ",
"                  B#C#D#D#E#F#G#H#I#J#K#L#s@c+.#                ",
"                    M#N#_.O#P#Q#c+'@R#I+b+7#S#T#                ",
"                    U#V#W#X#Y#Z#`#a+ $.$I+r@+$                  ",
"                      @$#$$$  %$x+b+z+l+&$*$                    ",
"                      =$-$;$    >$@+,$8@'$)$                    ",
"                        !$      ~${$#+.+]$                      ",
"                                  ^$]+/$($                      ",
"                                    _$:$                        ",
"                                    <$                          "};
