/* XPM */
static const char* msg_query_xpm[] = {
"24 24 22 1",
"   c None",
".  c #666699",
"+  c #6666CC",
"@  c #333399",
"#  c #6666FF",
"$  c #9966CC",
"%  c #9999CC",
"&  c #9999FF",
"*  c #CCCCCC",
"=  c #000099",
"-  c #336699",
";  c #CCCCFF",
">  c #CC99FF",
",  c #3333CC",
"'  c #003399",
")  c #FFFFFF",
"!  c #3366CC",
"~  c #99CCFF",
"{  c #999999",
"]  c #330099",
"^  c #663399",
"/  c #3300CC",
"         ..+..+         ",
"        @#$%&*=@@       ",
"       -=&&;&&;&=@      ",
"      ++>&,'@&;%&=@     ",
"     .,&&+%  @&;)&=!    ",
"    @=&~&={   @&&)+]    ",
"    !&))&+=%   @&&;'    ",
"    ^&)&&+={   @&&)/    ",
"    -&;&&+=+   +&;)=    ",
"    %]&,@/@   =$&)@.    ",
"     %===    =!&&=,     ",
"            =,&&=,      ",
"           @,;&=,       ",
"          %+&+=,        ",
"          ,&&=,         ",
"          ,&&=          ",
"          =+=@          ",
"                        ",
"          ====          ",
"         =&)),@         ",
"         =&)&+@         ",
"         @&&%=+         ",
"         @@,+=.         ",
"          ,.+.          "};
