/* XPM */
static char * read_xpm[] = {
"16 16 50 1",
" 	c None",
".	c #D0D0DF",
"+	c #9C9CB6",
"@	c #FFFFFF",
"#	c #F9F9FE",
"$	c #F5F5FC",
"%	c #E9E9F2",
"&	c #EBEBF4",
"*	c #FCFCFF",
"=	c #F8F8FE",
"-	c #ECECF4",
";	c #D3D3E1",
">	c #EFEFF6",
",	c #FDFDFF",
"'	c #F1F1F8",
")	c #E6E6F0",
"!	c #D7D7E5",
"~	c #C9C9DA",
"{	c #6A6A7B",
"]	c #FEFEFF",
"^	c #F2F2F9",
"/	c #EEEEF5",
"(	c #DADAE7",
"_	c #CECEDD",
":	c #CCCCDB",
"<	c #F3F3F9",
"[	c #D5D5E4",
"}	c #D2D2E0",
"|	c #E7E7F0",
"1	c #E0E0EC",
"2	c #DCDCE9",
"3	c #DBDBE8",
"4	c #D8D8E6",
"5	c #D57A00",
"6	c #F6F6FD",
"7	c #E5E5EF",
"8	c #DEDEEB",
"9	c #FEFEFE",
"0	c #FEFED5",
"a	c #FEFE7A",
"b	c #FED500",
"c	c #A94600",
"d	c #EAEAF3",
"e	c #E8E8F1",
"f	c #E1E1ED",
"g	c #FEFE00",
"h	c #7A0000",
"i	c #E4E4EE",
"j	c #D5A900",
"k	c #F0F0F7",
"    ........+   ",
"    .@@@#$%&.+  ",
"    .@@@*=-&.;+ ",
"    .@@@*#>&++++",
"   ++++@,#'&)!~+",
"  +@@@@{]*^/(_:+",
"  +@{+@{@*<&[}.+",
"  +@{+@{#$|1234+",
"  5555556/)7182+",
" 590aaabc/de7f1+",
" 5agagb5h>&d)i1+",
" 5agagb5h>&d|7f+",
" 5bjbj55hk/d|7f+",
"  chhhhhk>-d)7f+",
"    .*<<'>&d|7f+",
"    ++++++++++++"};
