/* XPM */
static const char * forward_xpm[] = {
"16 17 50 1",
" 	c None",
".	c #0C2E51",
"+	c #12416D",
"@	c #32739D",
"#	c #244263",
"$	c #DEECF7",
"%	c #A6D3EB",
"&	c #FFFFFF",
"*	c #9FC4DE",
"=	c #DFEDFA",
"-	c #EEF1FB",
";	c #BED9ED",
">	c #53AFD6",
",	c #0E88C1",
"'	c #5EB3D7",
")	c #0D97CA",
"!	c #0D81BE",
"~	c #0D82B8",
"{	c #0E7CB5",
"]	c #1492C7",
"^	c #105A8D",
"/	c #D2E1EF",
"(	c #8EC3E1",
"_	c #3FBFDA",
":	c #46C9E5",
"<	c #1BA8D0",
"[	c #0F8DC2",
"}	c #47CCE8",
"|	c #1C91C1",
"1	c #105687",
"2	c #02040B",
"3	c #173A5E",
"4	c #6399BC",
"5	c #2B83AC",
"6	c #2684AF",
"7	c #1E86B1",
"8	c #1184B9",
"9	c #14ADD8",
"0	c #050C18",
"a	c #0C2A4B",
"b	c #06121F",
"c	c #05101C",
"d	c #05101E",
"e	c #04111D",
"f	c #0E4C73",
"g	c #040911",
"h	c #103B5F",
"i	c #133858",
"j	c #0A223D",
"k	c #000000",
"                ",
"                ",
"        .       ",
"        +.      ",
"        +@.     ",
"        #$@.    ",
"   ++++##%&@.   ",
"   +*=-=;>,&@.  ",
"   +-')!~{!]$^. ",
"   #/(_:<![}|12 ",
"   3456789}|10  ",
"   abcdef}|1g   ",
"        h|1g    ",
"        i10     ",
"        j2      ",
"        k       ",
"                "};
