/* XPM */
static const char * reload_xpm[] = {
"16 16 14 1",
" 	c None",
".	c #FFFF3F",
"+	c #7F7F3F",
"@	c #9F9F5F",
"#	c #FFFF9F",
"$	c #9F9F7F",
"%	c #BFBF9F",
"&	c #FFDF3F",
"*	c #9F7F3F",
"=	c #DF9F3F",
"-	c #7F5F3F",
";	c #FFFFFF",
">	c #BFBFBF",
",	c #9F9F9F",
"          +     ",
"         ++     ",
"        +;+     ",
"       +;#@+@,> ",
"  ,$* -&.....+,>",
" ,*%   -&&*-*.+,",
",*%     -=- $-&+",
",*%  +   -- %$=+",
"+=$% ++   -  %*,",
"+&-$ +;+     %*,",
",+.*-@#;+   %*, ",
">,+.....&- *$,  ",
" >,@-*&&-       ",
"     -=-        ",
"     --         ",
"     -          "};
