/* XPM */
static const char * help_xpm[] = {
"22 22 69 1",
" 	c None",
".	c #802580",
"+	c #000000",
"@	c #C0C0C0",
"#	c #800080",
"$	c #804380",
"%	c #3B003B",
"&	c #803A80",
"*	c #808000",
"=	c #4F004F",
"-	c #FFFF00",
";	c #500050",
">	c #7E007E",
",	c #3E003E",
"'	c #030003",
")	c #800F71",
"!	c #800E72",
"~	c #240024",
"{	c #800580",
"]	c #80057B",
"^	c #3F1B3F",
"/	c #800980",
"(	c #331433",
"_	c #797979",
":	c #140914",
"<	c #230823",
"[	c #BBBBBB",
"}	c #404040",
"|	c #767676",
"1	c #1B121B",
"2	c #280F28",
"3	c #5F545F",
"4	c #595959",
"5	c #FFFFFF",
"6	c #3A183A",
"7	c #9B8C9B",
"8	c #6B296B",
"9	c #421242",
"0	c #401B40",
"a	c #9B8D9B",
"b	c #692A69",
"c	c #712271",
"d	c #A889A8",
"e	c #B1B1B1",
"f	c #9A949A",
"g	c #6E266E",
"h	c #5A125A",
"i	c #801E80",
"j	c #9B939B",
"k	c #B4B4B4",
"l	c #9A9A9A",
"m	c #7A247A",
"n	c #1C001C",
"o	c #0B000B",
"p	c #6E096E",
"q	c #7B257B",
"r	c #8A808A",
"s	c #C4BFC4",
"t	c #E5E5E5",
"u	c #140114",
"v	c #620062",
"w	c #723572",
"x	c #806280",
"y	c #D3CED3",
"z	c #E7E7E7",
"A	c #784378",
"B	c #8C628C",
"C	c #B6A7B6",
"D	c #460946",
"                      ",
"          .++@        ",
"         #$##%+@      ",
"        #&###*#=+@    ",
"       #####*-*##;+@  ",
"      #####*----*>#,' ",
"     ######)#!*-*###~ ",
"    #########*--*##+  ",
"   ##{#####*--*#]#^+  ",
"  #&/######-*#)##(_+  ",
" #:+####*-*#!###<_[+  ",
" #}|+1##*-*####2_[[3+ ",
" #455|+6######6_[[78+ ",
" #45555|+9###0_[[ab+@ ",
" #cde5555|++6_[[fg+@  ",
"  +hijk5555|_[[lmn@   ",
"  @+opqrs555t[fmu@    ",
"    @+nvwxy5zagn@     ",
"      @++=ABCb+@      ",
"        @ +D8+@       ",
"           @+@        ",
"                      "};
