/* XPM */
static const char * back_xpm[] = {
"16 17 55 1",
" 	c None",
".	c #104873",
"+	c #12426B",
"@	c #1F314E",
"#	c #1B466E",
"$	c #8097B9",
"%	c #000203",
"&	c #1A4169",
"*	c #E1ECF8",
"=	c #000000",
"-	c #184069",
";	c #FCFBFC",
">	c #58B3D9",
",	c #103E5F",
"'	c #154A72",
")	c #70C3DF",
"!	c #19A0CC",
"~	c #9CD5ED",
"{	c #CCE6F5",
"]	c #FCF9FC",
"^	c #7FB7DA",
"/	c #091528",
"(	c #12416D",
"_	c #DCEBF7",
":	c #0D81BE",
"<	c #1183B8",
"[	c #579FC4",
"}	c #07172C",
"|	c #090F1E",
"1	c #164C79",
"2	c #137CB2",
"3	c #3BC3E0",
"4	c #0D8AC4",
"5	c #22A4CF",
"6	c #42C5DD",
"7	c #2BB2D4",
"8	c #06172B",
"9	c #071830",
"0	c #144A77",
"a	c #47CCE8",
"b	c #1586BA",
"c	c #2282AF",
"d	c #298AB2",
"e	c #177BAA",
"f	c #13729E",
"g	c #061327",
"h	c #144F79",
"i	c #127CB3",
"j	c #0F4F7C",
"k	c #09203A",
"l	c #09213A",
"m	c #124875",
"n	c #1C91C1",
"o	c #061329",
"p	c #050D1C",
"                ",
"        .       ",
"       +@       ",
"      #$%       ",
"     &$*=       ",
"    -$;>,.....  ",
"   '$;)!~{]{^/  ",
"  ($_>!::<<<[}  ",
"  |1234:566758  ",
"   902a4bcdef=  ",
"    ghi3jkll==  ",
"     gmn=       ",
"      o.=       ",
"       p=       ",
"        =       ",
"                ",
"                "};
