/* XPM */
static const char* black_bullet_xpm[] = {
"11 11 5 1",
" 	g None",
".	g #4C4C4C",
"+	g #262626",
"@	g #FFFFFF",
"#	g #808080",
"           ",
"           ",
"           ",
"    ..+    ",
"   .@+.+#  ",
"   .+.++#  ",
"   +.+++#  ",
"    +++#   ",
"    ###    ",
"           ",
"           "};
