/* XPM */
static const char* view_flags_xpm[] = {
"17 17 5 1",
" 	c None",
".	c #000000",
"+	c #E7E7E7",
"@	c #FFFFFF",
"#	c #D1D1D1",
"                 ",
"        .        ",
"       .+.       ",
"      .@@+.      ",
"     .@@@@+.     ",
"    . ..+.. .    ",
"   .@. .+. .+.   ",
"  .@+...@...@+.  ",
" .@@+++@@@@@@@#. ",
"  .@+...@...@#.  ",
"   .+. .@. .#.   ",
"    . ..@.. .    ",
"     .@@@@#.     ",
"      .@@#.      ",
"       .#.       ",
"        .        ",
"                 "};
